<?xml version="1.0" encoding="UTF-8" standalone="no"?>
<svg
   xmlns:dc="http://purl.org/dc/elements/1.1/"
   xmlns:cc="http://creativecommons.org/ns#"
   xmlns:rdf="http://www.w3.org/1999/02/22-rdf-syntax-ns#"
   xmlns:svg="http://www.w3.org/2000/svg"
   xmlns="http://www.w3.org/2000/svg"
   xmlns:sodipodi="http://sodipodi.sourceforge.net/DTD/sodipodi-0.dtd"
   xmlns:inkscape="http://www.inkscape.org/namespaces/inkscape"
   version="1.1"
   viewBox="0.0 0.0 755.0 511.0"
   fill="none"
   stroke="none"
   stroke-linecap="square"
   stroke-miterlimit="10"
   id="svg1854"
   sodipodi:docname="Red-Crab.svg"
   inkscape:version="0.92.2 (5c3e80d, 2017-08-06)">
  <defs
     id="defs1858" />
  <sodipodi:namedview
     pagecolor="#ffffff"
     bordercolor="#666666"
     borderopacity="1"
     objecttolerance="10"
     gridtolerance="10"
     guidetolerance="10"
     inkscape:pageopacity="0"
     inkscape:pageshadow="2"
     inkscape:window-width="2517"
     inkscape:window-height="1385"
     id="namedview1856"
     showgrid="false"
     inkscape:zoom="2.5624426"
     inkscape:cx="367.50558"
     inkscape:cy="308.30713"
     inkscape:window-x="43"
     inkscape:window-y="27"
     inkscape:window-maximized="1"
     inkscape:current-layer="svg1854" />
  <clipPath
     id="p.0">
    <path
       d="m0 0l755.0 0l0 511.0l-755.0 0l0 -511.0z"
       clip-rule="nonzero"
       id="path1799" />
  </clipPath>
  <g
     clip-path="url(#p.0)"
     id="g1850">
    <path
       fill="#000000"
       fill-opacity="0.0"
       d="m0 0l755.5958 0l0 511.1181l-755.5958 0z"
       fill-rule="nonzero"
       id="path1802" />
    <path
       fill="#ff0000"
       d="m249.20016 203.16629c-23.403946 13.979355 -37.001114 33.198853 -46.04895 55.354828c-9.047836 22.156006 -11.884613 53.84015 -8.238068 77.581116c3.6465607 23.740967 9.442612 49.16992 30.117355 64.86478c20.674759 15.694855 52.64357 25.722473 93.93114 29.30429c41.287567 3.581787 115.01886 0.17605591 153.79422 -7.8134766c38.77536 -7.9895325 60.541016 -20.711761 78.85791 -40.12375c18.316895 -19.412018 32.025208 -48.940033 31.043457 -76.348236c-0.98168945 -27.408203 -18.325562 -67.36154 -36.933838 -88.10104c-18.608215 -20.739502 -41.0242 -29.129349 -74.71561 -36.335983c-33.691406 -7.2066193 -90.464966 -10.506699 -127.43289 -6.903778c-36.967926 3.6029053 -70.970764 14.541901 -94.374725 28.521255z"
       fill-rule="nonzero"
       id="path1804" />
    <path
       fill="#ff0000"
       d="m496.41547 383.02768c-1.4267883 -6.5955505 35.596252 -1.2640381 49.64258 4.7341614c14.046326 5.9981995 28.208801 16.54773 34.635315 31.255005c6.4265137 14.707275 8.26947 55.602264 3.923706 56.988647c-4.345764 1.386383 -15.298096 -33.17398 -29.998352 -48.670288c-14.700256 -15.496307 -56.77649 -37.711945 -58.203247 -44.307526z"
       fill-rule="nonzero"
       id="path1806" />
    <path
       fill="#ff0000"
       d="m529.902 363.67197c-2.4196777 -5.380432 34.896545 -4.35849 49.664734 -0.64797974c14.768188 3.7105103 30.350037 11.2144165 38.944458 22.911072c8.594421 11.696655 16.693176 45.70697 12.62207 47.26889c-4.071106 1.5618896 -20.176697 -26.308777 -37.048584 -37.89743c-16.871887 -11.588684 -61.763 -26.25415 -64.18268 -31.634552z"
       fill-rule="nonzero"
       id="path1808" />
    <path
       fill="#ff0000"
       d="m560.0001 333.85025c-2.2372437 -4.5841675 24.793823 -7.9148865 35.79303 -6.2467957c10.999207 1.6681213 22.93164 6.669922 30.20227 16.255463c7.270691 9.585541 16.218018 39.382874 13.42157 41.25775c-2.7964478 1.8749084 -16.96399 -21.463898 -30.200134 -30.0083c-13.236145 -8.544403 -46.97943 -16.67398 -49.216736 -21.258118z"
       fill-rule="nonzero"
       id="path1810" />
    <path
       fill="#ff0000"
       d="m295.55057 375.3791c-0.44384766 -6.7526855 -36.564545 9.65329 -49.126373 19.685272c-12.561829 10.032013 -23.934189 24.45874 -26.244537 40.506744c-2.3103638 16.048004 7.564438 55.779694 12.3824005 55.78125c4.8179626 0.0015563965 6.0272675 -36.443024 16.52536 -55.77191c10.498093 -19.328888 46.90703 -53.4487 46.46315 -60.201355z"
       fill-rule="nonzero"
       id="path1812" />
    <path
       fill="#ff0000"
       d="m255.93388 367.06024c0.9149933 -5.8918457 -36.741943 6.4758606 -50.695175 14.537048c-13.953217 8.061188 -27.644104 20.003998 -33.02417 33.83008c-5.380081 13.82608 -3.845337 48.872894 0.7436981 49.126373c4.58902 0.25350952 12.961182 -31.356445 26.790466 -47.605377c13.829269 -16.248901 55.270172 -43.996277 56.18518 -49.888123z"
       fill-rule="nonzero"
       id="path1814" />
    <path
       fill="#ff0000"
       d="m216.75627 347.68298c0.9582977 -5.073517 -27.489212 -0.013824463 -38.196167 4.940857c-10.706955 4.954651 -21.405243 13.3871765 -26.045563 24.7872c-4.64032 11.400024 -5.1789856 42.670624 -1.7963562 43.612946c3.3826294 0.9423218 11.085785 -25.735535 22.092133 -37.959045c11.006348 -12.223511 42.987656 -30.308441 43.945953 -35.381958z"
       fill-rule="nonzero"
       id="path1816" />
    <path
       fill="#ff0000"
       d="m141.82649 165.62766c-6.7564087 -0.39082336 5.079788 37.47174 13.489929 51.17195c8.410141 13.700195 21.328293 26.761108 36.970917 31.029282c15.642639 4.268173 56.290268 -0.6395111 56.884842 -5.420227c0.59458923 -4.780716 -35.426376 -10.467239 -53.31732 -23.264069c-17.890945 -12.796829 -47.271957 -53.1261 -54.028366 -53.516937z"
       fill-rule="nonzero"
       id="path1818" />
    <path
       fill="#ff0000"
       d="m630.6312 157.41759c7.340515 -0.5408325 -4.064026 37.21608 -12.684082 50.972046c-8.620056 13.755966 -22.173096 26.981644 -39.036377 31.563766c-16.863342 4.5821075 -61.30896 0.64875793 -62.14337 -4.071045c-0.8344116 -4.719803 38.159485 -11.170303 57.13684 -24.247757c18.977295 -13.077469 49.386475 -53.676193 56.72699 -54.21701z"
       fill-rule="nonzero"
       id="path1820" />
    <path
       fill="#ff0000"
       d="m27.720749 62.50713c-9.173855 4.873188 -15.100966 36.345577 -12.900166 55.06544c2.2008018 18.719864 14.16127 42.269043 26.104973 57.25374c11.943699 14.98468 28.342037 27.953552 45.55723 32.65442c17.215195 4.7008667 39.774796 1.1441498 57.733932 -4.4492188c17.959137 -5.5933685 38.36635 -16.074585 50.020905 -29.110992c11.654556 -13.036423 19.225464 -32.259125 19.906387 -49.1075c0.6809387 -16.848373 -8.183731 -37.04145 -15.820801 -51.98275c-7.6370544 -14.941299 -17.24356 -28.70361 -30.001572 -37.66504c-12.758011 -8.96143 -38.30449 -20.137062 -46.54651 -16.103542c-8.24202 4.0335217 -0.66360474 26.386982 -2.9055862 40.304672c-2.2419891 13.91769 -2.3786926 38.373608 -10.546326 43.201458c-8.167641 4.8278503 -25.025757 -7.557579 -38.459503 -14.23436c-13.433743 -6.6767807 -32.969112 -30.699516 -42.142967 -25.826328z"
       fill-rule="nonzero"
       id="path1822" />
    <path
       fill="#ff0000"
       d="m713.5684 37.61286c9.305176 2.9816284 20.50592 32.683723 21.917114 51.472443c1.4112549 18.788712 -5.2424316 44.22529 -13.449707 61.259834c-8.207275 17.034561 -20.868774 32.96501 -35.793945 40.94751c-14.925232 7.982498 -36.263977 8.914261 -53.757202 6.94751c-17.493225 -1.9667511 -38.12683 -8.247162 -51.20227 -18.748032c-13.075439 -10.50087 -23.53949 -27.868332 -27.250427 -44.257217c-3.7109375 -16.388893 0.71868896 -37.927826 4.984741 -54.07612c4.2660522 -16.148293 10.554016 -31.526245 20.61145 -42.813644c10.057495 -11.287403 31.43634 -27.251534 39.733215 -24.910763c8.296814 2.3407698 5.442444 25.74628 10.047974 38.95538c4.605591 13.209099 9.211121 37.164917 17.585327 40.299217c8.3741455 3.1342926 21.564148 -12.314087 32.65973 -21.493439c11.095642 -9.179356 24.608765 -36.56431 33.914 -33.58268z"
       fill-rule="nonzero"
       id="path1824" />
    <path
       fill="#000000"
       fill-opacity="0.0"
       d="m272.04987 261.2651c10.746277 6.9404907 42.3132 33.13559 64.47769 41.643036c22.16449 8.507416 45.44925 11.86438 68.509186 9.401581c23.059937 -2.4628296 54.178925 -14.999573 69.8504 -24.178497c15.671478 -9.178894 20.148712 -25.74585 24.178467 -30.89502"
       fill-rule="nonzero"
       id="path1846" />
  </g>
  <metadata
     id="metadata1852">
    <rdf:RDF>
      <cc:Work>
        <dc:format>image/svg+xml</dc:format>
        <dc:type
           rdf:resource="http://purl.org/dc/dcmitype/StillImage" />
        <cc:license
           rdf:resource="http://creativecommons.org/licenses/publicdomain/" />
        <dc:publisher>
          <cc:Agent
             rdf:about="http://openclipart.org/">
            <dc:title>Openclipart</dc:title>
          </cc:Agent>
        </dc:publisher>
        <dc:title></dc:title>
        <dc:date>2014-04-23T15:58:33</dc:date>
        <dc:description>A clipart of cute red crab.</dc:description>
        <dc:source>https://openclipart.org/detail/192996/red-crab-by-scout-192996</dc:source>
        <dc:creator>
          <cc:Agent>
            <dc:title>Scout</dc:title>
          </cc:Agent>
        </dc:creator>
        <dc:subject>
          <rdf:Bag>
            <rdf:li>animal</rdf:li>
            <rdf:li>beach critter</rdf:li>
            <rdf:li>crab</rdf:li>
            <rdf:li>crabs</rdf:li>
            <rdf:li>creature</rdf:li>
            <rdf:li>critter</rdf:li>
            <rdf:li>crustacean</rdf:li>
            <rdf:li>cute</rdf:li>
          </rdf:Bag>
        </dc:subject>
      </cc:Work>
      <cc:License
         rdf:about="http://creativecommons.org/licenses/publicdomain/">
        <cc:permits
           rdf:resource="http://creativecommons.org/ns#Reproduction" />
        <cc:permits
           rdf:resource="http://creativecommons.org/ns#Distribution" />
        <cc:permits
           rdf:resource="http://creativecommons.org/ns#DerivativeWorks" />
      </cc:License>
    </rdf:RDF>
  </metadata>
</svg>
